<?xml version="1.0" encoding="utf-8"?>
<!-- Generator: Adobe Illustrator 30.4.0, SVG Export Plug-In . SVG Version: 9.03 Build 0)  -->
<svg version="1.0" id="Layer_1" xmlns="http://www.w3.org/2000/svg" xmlns:xlink="http://www.w3.org/1999/xlink" x="0px" y="0px"
	 viewBox="0 0 1000 1000" style="enable-background:new 0 0 1000 1000;" xml:space="preserve">
<g>
	<g>
		<g>
			<g transform="translate(1.007913, 440.428851)">
				<g>
					<path d="M190.79,158.66c0,12.07,2.23,23.49,6.69,34.25c4.47,10.77,10.65,20.08,18.52,27.96s17.06,14.05,27.56,18.52
						c10.5,4.46,21.79,6.69,33.87,6.69H84.48c11.55-1.57,22.71-5.24,33.48-11.02c10.76-5.78,20.86-13,30.31-21.67
						c9.46-8.67,17.86-18.25,25.21-28.75c7.34-10.5,13.11-21.26,17.31-32.29V158.66z M342.02,246.08c11.03,0,20.48-4.59,28.35-13.77
						c7.88-9.19,11.81-19.57,11.81-31.13c0-2.09,0-4.19,0-6.29c0-2.09-0.53-4.2-1.58-6.31l-22.83-66.15l-1.58-4.73L300.27-43.75
						c-3.68-8.92-10.24-13.38-19.69-13.38c-8.93,0-15.23,4.46-18.9,13.38l94.5-261.46L443.6-53.98c3.68,10.5,7.88,22.97,12.6,37.42
						c4.72,14.43,8.92,26.9,12.6,37.4l64.58,184.29c3.67,10.5,10.09,19.95,19.29,28.35c9.19,8.41,19.82,12.6,31.9,12.6H342.02z"/>
				</g>
			</g>
		</g>
	</g>
	<g>
		<g>
			<g transform="translate(407.31193, 150.568186)">
				<g>
					<path d="M400.89,182.21c0-12.07-2.23-23.49-6.69-34.25c-4.47-10.77-10.65-20.08-18.52-27.96s-17.06-14.05-27.56-18.52
						c-10.5-4.46-21.79-6.69-33.88-6.69H507.2c-11.55,1.57-22.71,5.24-33.48,11.02c-10.76,5.78-20.86,13-30.31,21.67
						c-9.46,8.67-17.86,18.25-25.21,28.75c-7.34,10.5-13.11,21.26-17.31,32.29V182.21z M249.66,94.79
						c-11.03,0-20.48,4.59-28.35,13.77c-7.88,9.19-11.81,19.57-11.81,31.12c0,2.09,0,4.19,0,6.29c0,2.09,0.53,4.2,1.58,6.31
						l22.83,66.15l1.58,4.73l55.92,161.46c3.68,8.92,10.24,13.38,19.69,13.38c8.93,0,15.23-4.46,18.9-13.38l-94.5,261.46
						l-87.42-251.23c-3.68-10.5-7.88-22.97-12.6-37.42c-4.72-14.43-8.92-26.9-12.6-37.4L58.29,135.75
						c-3.67-10.5-10.09-19.95-19.29-28.35c-9.19-8.41-19.82-12.6-31.9-12.6H249.66z"/>
				</g>
			</g>
		</g>
	</g>
</g>
</svg>
